<svg width="325" height="180" viewBox="0 0 325 180" fill="none" xmlns="http://www.w3.org/2000/svg">
<path d="M58.296 25.056H82.656L82.6559 61.92C82.6559 86.688 100.944 103.392 126.576 103.392C148.369 103.392 164.81 91.4508 169.37 72.7907L155.077 81.0429C151.743 82.9674 147.577 80.5618 147.577 76.7128V21.2872C147.577 17.4382 151.743 15.0326 155.077 16.9571L170.64 25.9424V3C170.64 1.34315 169.297 0 167.64 0H145.272C143.615 0 142.272 1.34315 142.272 3V61.344C142.272 71.28 135.936 77.616 126.576 77.616C117.36 77.616 111.024 71.28 111.024 61.344V3C111.024 1.34315 109.681 0 108.024 0H3C1.34315 0 0 1.34314 0 3V22.056C0 23.7129 1.34315 25.056 3 25.056H24.36C26.0169 25.056 27.36 26.3992 27.36 28.056V97.8C27.36 99.4569 28.7031 100.8 30.36 100.8H52.296C53.9529 100.8 55.296 99.4569 55.296 97.8V28.056C55.296 26.3991 56.6391 25.056 58.296 25.056Z" fill="#FF473A"/>
<path fill-rule="evenodd" clip-rule="evenodd" d="M175.877 69.0341L203.077 53.3301C206.41 51.4056 206.41 46.5944 203.077 44.6699L175.877 28.9658V3.144C175.877 1.48714 177.22 0.143998 178.877 0.143998H221.381C239.237 0.143998 252.34 10.944 252.34 25.92C252.34 34.848 247.301 42.912 239.669 47.664C249.173 52.128 255.077 61.2 255.077 72.144C255.077 88.56 240.965 100.944 222.389 100.944H178.877C177.22 100.944 175.877 99.6009 175.877 97.944V69.0341ZM225.989 30.528C225.989 25.2 222.389 21.744 216.629 21.744H202.517V39.312H216.629C222.389 39.312 225.989 35.712 225.989 30.528ZM217.637 78.048C223.685 78.048 227.573 74.304 227.573 68.832C227.573 63.504 223.685 59.76 217.637 59.76H202.517V78.048H217.637Z" fill="#FF473A"/>
<path d="M321.577 76.752H286.416V61.632H316.536C318.193 61.632 319.536 60.2889 319.536 58.632V41.88C319.536 40.2232 318.193 38.88 316.536 38.88H286.416V24.048H320.28C321.937 24.048 323.28 22.7049 323.28 21.048V3C323.28 1.34315 321.937 0 320.28 0H261.768C260.112 0 258.768 1.34315 258.768 3V97.8C258.768 99.4569 260.112 100.8 261.768 100.8H321.577C323.233 100.8 324.577 99.4569 324.577 97.8V79.752C324.577 78.0952 323.233 76.752 321.577 76.752Z" fill="#FF473A"/>
<path d="M75.8816 107.949L77.1066 119.42H75.7702C75.6217 119.123 75.4361 118.789 75.2134 118.418C74.9906 117.972 74.4338 117.193 73.5428 116.079C72.7261 114.965 71.7981 114 70.7586 113.183C69.7192 112.367 68.2714 111.624 66.4152 110.956C64.6333 110.214 62.7401 109.842 60.7354 109.842H49.2645V129.666H63.4083V131.782H49.2645L49.3758 168.422C49.3758 169.833 49.5614 171.095 49.9327 172.209C50.3039 173.248 50.7494 174.065 51.2691 174.659C51.7888 175.179 52.3085 175.624 52.8283 175.995C53.348 176.292 53.7935 176.478 54.1647 176.552L54.7215 176.664V178H33.3387V176.664C33.4872 176.664 33.6728 176.664 33.8956 176.664C34.1926 176.589 34.638 176.404 35.232 176.107C35.9002 175.736 36.4571 175.29 36.9025 174.77C37.348 174.176 37.7564 173.323 38.1276 172.209C38.5731 171.021 38.7958 169.647 38.7958 168.088V118.084C38.7958 116.228 38.6102 114.668 38.239 113.406C37.8677 112.07 37.3851 111.142 36.7912 110.622C36.2715 110.102 35.7146 109.768 35.1206 109.62C34.6009 109.397 34.1554 109.286 33.7842 109.286L33.2274 109.397L33.116 107.949H75.8816Z" fill="white"/>
<path d="M95.3754 117.861V168.422C95.3754 169.833 95.5611 171.095 95.9323 172.209C96.3035 173.248 96.749 174.065 97.2687 174.659C97.8627 175.179 98.4195 175.624 98.9392 175.995C99.459 176.292 99.9044 176.478 100.276 176.552L100.833 176.664V178H79.4497V176.664C79.5982 176.664 79.7838 176.664 80.0066 176.664C80.3036 176.589 80.749 176.404 81.343 176.107C81.937 175.736 82.4567 175.29 82.9022 174.77C83.4219 174.176 83.8673 173.323 84.2386 172.209C84.6841 171.021 84.9068 169.647 84.9068 168.088V117.527C84.9068 116.116 84.7212 114.854 84.3499 113.74C83.9787 112.627 83.4961 111.81 82.9022 111.29C82.3824 110.77 81.8627 110.325 81.343 109.954C80.8233 109.583 80.3778 109.36 80.0066 109.286L79.4497 109.174V107.949H100.833V109.174C100.684 109.248 100.461 109.323 100.164 109.397C99.9416 109.397 99.5332 109.583 98.9392 109.954C98.3453 110.251 97.7884 110.696 97.2687 111.29C96.8232 111.81 96.3778 112.664 95.9323 113.852C95.5611 114.965 95.3754 116.302 95.3754 117.861Z" fill="white"/>
<path d="M149.882 164.413L151.218 164.302V178H105.334V176.664C105.483 176.664 105.668 176.664 105.891 176.664C106.188 176.589 106.634 176.404 107.228 176.107C107.821 175.736 108.341 175.29 108.787 174.77C109.306 174.176 109.752 173.323 110.123 172.209C110.569 171.021 110.791 169.647 110.791 168.088V117.527C110.791 116.116 110.606 114.854 110.234 113.74C109.863 112.627 109.381 111.81 108.787 111.29C108.267 110.77 107.747 110.325 107.228 109.954C106.708 109.583 106.262 109.36 105.891 109.286L105.334 109.174V107.949H126.717V109.174C126.569 109.248 126.346 109.323 126.049 109.397C125.826 109.397 125.418 109.583 124.824 109.954C124.23 110.251 123.673 110.696 123.153 111.29C122.708 111.81 122.262 112.664 121.817 113.852C121.446 114.965 121.26 116.302 121.26 117.861V176.107L135.07 175.995C137.743 175.995 140.044 175.624 141.975 174.882C143.979 174.065 145.464 173.1 146.429 171.986C147.394 170.798 148.137 169.647 148.657 168.534C149.251 167.346 149.622 166.343 149.77 165.527L149.882 164.413Z" fill="white"/>
<path d="M218.32 109.174C218.172 109.248 217.986 109.323 217.764 109.397C217.541 109.397 217.095 109.583 216.427 109.954C215.833 110.251 215.276 110.696 214.757 111.29C214.311 111.81 213.903 112.664 213.532 113.852C213.16 114.965 212.975 116.302 212.975 117.861V168.422C212.975 169.833 213.16 171.095 213.532 172.209C213.903 173.248 214.348 174.065 214.868 174.659C215.388 175.179 215.907 175.624 216.427 175.995C216.947 176.292 217.392 176.478 217.764 176.552L218.32 176.664V178H196.938V176.664C197.086 176.664 197.272 176.664 197.494 176.664C197.791 176.589 198.237 176.404 198.831 176.107C199.425 175.736 199.945 175.29 200.39 174.77C200.91 174.176 201.355 173.323 201.726 172.209C202.172 171.021 202.395 169.647 202.395 168.088V114.074L187.805 152.719C188.919 155.392 189.958 157.991 190.924 160.515C192.112 163.782 192.037 166.9 190.701 169.87C189.365 172.766 187.1 174.213 183.907 174.213C181.754 174.213 180.158 173.694 179.119 172.654C178.079 171.541 177.559 170.316 177.559 168.979C177.634 167.568 178.042 166.121 178.784 164.636L180.678 160.404L161.968 115.299V168.088C161.968 169.647 162.153 171.021 162.525 172.209C162.896 173.323 163.341 174.176 163.861 174.77C164.381 175.29 164.901 175.736 165.42 176.107C165.94 176.404 166.385 176.589 166.757 176.664H167.314V178H153.949V176.664C154.098 176.664 154.283 176.626 154.506 176.552C154.803 176.478 155.249 176.292 155.843 175.995C156.437 175.624 156.956 175.179 157.402 174.659C157.921 174.065 158.367 173.248 158.738 172.209C159.184 171.095 159.406 169.833 159.406 168.422V117.861C159.406 116.302 159.221 114.965 158.85 113.852C158.478 112.664 157.996 111.81 157.402 111.29C156.882 110.696 156.362 110.251 155.843 109.954C155.323 109.583 154.877 109.36 154.506 109.286L153.949 109.174V107.949H169.318L186.469 150.046L202.395 108.06V107.949H218.32V109.174ZM182.126 171.986C183.165 171.986 183.833 171.392 184.13 170.204C184.427 169.016 184.279 167.94 183.685 166.975C182.423 164.227 181.791 162.854 181.791 162.854C181.42 163.745 181.086 164.562 180.789 165.304C180.047 166.566 179.713 168.014 179.787 169.647C179.935 171.207 180.715 171.986 182.126 171.986Z" fill="white"/>
<path d="M250.076 175.995C252.081 175.995 253.974 175.624 255.756 174.882C257.612 174.065 259.097 173.174 260.211 172.209C261.324 171.244 262.29 170.167 263.106 168.979C263.997 167.791 264.591 166.937 264.888 166.418C265.185 165.824 265.334 165.415 265.334 165.193H266.781L265.556 178H223.014V176.664C223.162 176.664 223.348 176.626 223.57 176.552C223.867 176.478 224.313 176.292 224.907 175.995C225.575 175.624 226.132 175.179 226.577 174.659C227.023 174.065 227.431 173.248 227.802 172.209C228.248 171.095 228.471 169.833 228.471 168.422V118.529C228.471 116.524 228.285 114.854 227.914 113.518C227.543 112.181 227.06 111.253 226.466 110.733C225.946 110.214 225.389 109.842 224.795 109.62C224.276 109.397 223.83 109.286 223.459 109.286L222.902 109.397L222.791 107.949H265.556L266.781 119.42H265.334C265.259 119.123 265.111 118.789 264.888 118.418C264.665 117.972 264.109 117.193 263.218 116.079C262.401 114.965 261.473 114 260.433 113.183C259.394 112.367 257.946 111.624 256.09 110.956C254.308 110.214 252.415 109.842 250.41 109.842H238.939V129.666H253.083V131.782H238.939V175.995H250.076Z" fill="white"/>
<path d="M304.721 139.912C309.25 142.139 312.739 144.738 315.189 147.708C317.714 150.603 318.976 154.13 318.976 158.288C318.976 161.629 318.196 164.673 316.637 167.42C315.152 170.167 313.222 172.394 310.846 174.102C308.47 175.736 305.909 176.998 303.162 177.889C300.414 178.78 297.704 179.225 295.032 179.225C284.043 179.225 276.693 174.807 272.981 165.972C271.793 163.299 271.162 160.849 271.087 158.622H277.213C277.213 160.33 277.547 162.223 278.215 164.302C278.883 166.381 279.848 168.459 281.111 170.538C282.447 172.543 284.229 174.213 286.456 175.55C288.758 176.886 291.319 177.555 294.141 177.555C298.892 177.555 302.753 176.218 305.723 173.545C308.693 170.798 310.178 167.42 310.178 163.411C310.178 162.297 310.029 161.258 309.732 160.292C309.51 159.253 309.213 158.325 308.841 157.508C308.544 156.691 308.025 155.875 307.282 155.058C306.614 154.241 306.02 153.573 305.5 153.053C305.055 152.459 304.275 151.828 303.162 151.16C302.122 150.418 301.343 149.898 300.823 149.601C300.303 149.23 299.375 148.747 298.039 148.153C296.776 147.485 295.923 147.077 295.477 146.928C295.106 146.705 294.215 146.297 292.804 145.703C291.394 145.109 290.54 144.775 290.243 144.701C278.66 139.652 272.869 132.673 272.869 123.763C272.869 118.789 274.577 114.668 277.992 111.402C281.482 108.135 285.937 106.501 291.356 106.501C300.786 106.501 307.579 110.251 311.737 117.75C312.628 119.383 313.222 120.868 313.519 122.204H307.728C306.391 117.601 304.312 114.074 301.491 111.624C298.67 109.174 295.292 107.949 291.356 107.949C287.718 107.949 284.674 109.063 282.224 111.29C279.774 113.443 278.549 115.819 278.549 118.418C278.549 121.61 279.403 124.357 281.111 126.659C282.892 128.961 285.64 131.002 289.352 132.784C290.243 133.23 291.95 134.046 294.475 135.234C297.073 136.348 299.375 137.388 301.38 138.353C303.459 139.244 304.572 139.763 304.721 139.912Z" fill="white"/>
</svg>
