<svg width="712" height="579" viewBox="0 0 712 579" fill="none" xmlns="http://www.w3.org/2000/svg">
<path fill-rule="evenodd" clip-rule="evenodd" d="M174.397 0C149.588 0 129.477 20.0956 129.477 44.8847V251.627C129.477 276.416 149.588 296.511 174.397 296.511H539.207C564.016 296.511 584.127 276.416 584.127 251.627V44.8847C584.127 20.0956 564.016 0 539.207 0H174.397ZM439.837 155.323C445.282 152.182 445.282 144.329 439.837 141.188L321.41 72.8688C315.965 69.7277 309.159 73.6541 309.159 79.9363V216.575C309.159 222.857 315.965 226.784 321.41 223.642L439.837 155.323Z" fill="url(#paint0_linear_1_29)"/>
<path d="M157.459 307.383C160.735 307.383 163.39 310.038 163.39 313.314V350.982C163.39 354.258 160.735 356.913 157.459 356.913H115.236C111.961 356.913 109.306 359.568 109.306 362.843V500.709C109.306 503.984 106.651 506.639 103.376 506.639H60.0139C56.7387 506.639 54.0837 503.984 54.0837 500.709V362.843C54.0837 359.568 51.4286 356.913 48.1534 356.913H5.93023C2.65506 356.913 0 354.258 0 350.982V313.314C0 310.038 2.65505 307.383 5.93023 307.383H157.459Z" fill="url(#paint1_linear_1_29)"/>
<path d="M272.789 511.763C222.121 511.763 185.97 478.743 185.97 429.783V313.314C185.97 310.038 188.625 307.383 191.901 307.383H236.116C239.392 307.383 242.047 310.038 242.047 313.314V428.645C242.047 448.285 254.571 460.81 272.789 460.81C291.291 460.81 303.816 448.285 303.816 428.645V313.314C303.816 310.038 306.471 307.383 309.746 307.383H353.962C357.237 307.383 359.892 310.038 359.892 313.314V429.783C359.892 478.743 323.741 511.763 272.789 511.763Z" fill="url(#paint2_linear_1_29)"/>
<path d="M522.548 401.603C541.335 410.427 553.005 428.36 553.005 449.993C553.005 482.444 525.11 506.924 488.39 506.924H402.378C399.102 506.924 396.447 504.269 396.447 500.993V313.598C396.447 310.323 399.102 307.668 402.378 307.668H486.397C521.694 307.668 547.597 329.017 547.597 358.62C547.597 376.269 537.634 392.209 522.548 401.603ZM495.506 367.729C495.506 357.197 488.39 350.366 477.004 350.366H449.108V385.093H477.004C488.39 385.093 495.506 377.977 495.506 367.729ZM478.996 461.664C490.952 461.664 498.637 454.263 498.637 443.446C498.637 432.914 490.952 425.513 478.996 425.513H449.108V461.664H478.996Z" fill="url(#paint3_linear_1_29)"/>
<path d="M636.513 459.102H706.015C709.29 459.102 711.945 461.757 711.945 465.032V500.709C711.945 503.984 709.29 506.639 706.015 506.639H587.79C584.515 506.639 581.86 503.984 581.86 500.709V313.314C581.86 310.038 584.515 307.383 587.79 307.383H703.453C706.728 307.383 709.383 310.038 709.383 313.314V348.99C709.383 352.265 706.728 354.92 703.453 354.92H636.513V384.239H696.052C699.327 384.239 701.982 386.894 701.982 390.169V423.284C701.982 426.559 699.327 429.214 696.052 429.214H636.513V459.102Z" fill="url(#paint4_linear_1_29)"/>
<path d="M212.793 551.48V556.623C198.524 564.221 185.459 569.873 173.598 573.579C161.738 577.193 150.804 579 140.797 579C120.411 579 104.706 573.996 93.679 563.989C82.7452 553.982 77.2782 539.666 77.2782 521.041C77.2782 501.861 82.2819 482.726 92.2891 463.639C102.296 444.551 116.659 426.853 135.376 410.545C150.943 396.924 166.834 386.407 183.049 378.994C199.357 371.581 214.693 367.875 229.055 367.875C236.004 367.875 241.471 369.496 245.456 372.739C249.44 375.982 251.432 380.43 251.432 386.082C251.432 398.035 245.78 409.479 234.476 420.413C223.264 431.254 207.697 440.196 187.775 447.238L192.223 429.03C208.438 422.544 221.179 415.27 230.445 407.209C239.711 399.055 244.344 391.271 244.344 383.859C244.344 380.152 242.954 377.28 240.174 375.241C237.487 373.203 233.688 372.183 228.777 372.183C219.696 372.183 209.782 374.546 199.033 379.272C188.377 383.998 177.953 390.623 167.761 399.147C147.468 416.289 131.067 436.165 118.558 458.774C106.049 481.29 99.7946 501.768 99.7946 520.207C99.7946 536.238 104.057 548.747 112.582 557.735C121.106 566.63 133.059 571.078 148.441 571.078C156.78 571.078 166.093 569.502 176.378 566.352C186.663 563.202 198.802 558.244 212.793 551.48Z" fill="white"/>
<path d="M237.95 515.899L257.548 512.98L242.398 559.68C242.027 560.885 241.703 562.136 241.425 563.433C241.147 564.73 241.008 565.75 241.008 566.491C241.008 567.418 241.379 568.205 242.12 568.854C242.861 569.41 243.742 569.688 244.761 569.688C250.228 569.688 256.529 564.499 263.663 554.121C270.891 543.743 277.192 530.215 282.566 513.536H300.496L286.319 563.711C286.041 564.545 285.809 565.333 285.624 566.074C285.531 566.723 285.485 567.371 285.485 568.02C285.485 569.039 285.716 569.78 286.18 570.244C286.643 570.614 287.431 570.8 288.543 570.8C289.84 570.8 291.925 569.919 294.797 568.159C297.762 566.398 301.469 563.757 305.916 560.236L307.723 563.155C302.256 568.159 297.438 571.726 293.268 573.857C289.098 575.989 284.975 577.054 280.898 577.054C277.192 577.054 274.412 576.267 272.559 574.691C270.706 573.116 269.779 570.707 269.779 567.464C269.779 566.63 269.872 565.703 270.057 564.684C270.242 563.665 270.613 562.09 271.169 559.958L277.145 537.859C271.4 550.368 265.192 560.051 258.521 566.908C251.942 573.672 245.363 577.054 238.784 577.054C233.781 577.054 230.028 576.035 227.526 573.996C224.932 571.865 223.634 568.715 223.634 564.545C223.634 563.248 223.912 561.58 224.468 559.541C224.932 557.503 225.719 554.816 226.831 551.48L237.95 515.899Z" fill="white"/>
<path d="M311.754 576.22L327.599 516.733L344.694 513.814L333.297 553.148C340.617 539.805 347.474 529.798 353.868 523.126C360.354 516.362 366.33 512.98 371.797 512.98C374.855 512.98 377.125 513.953 378.608 515.899C380.09 517.752 380.832 520.578 380.832 524.377C380.832 526.138 380.646 528.13 380.276 530.354C379.905 532.577 379.349 535.172 378.608 538.137L364.987 540.361L365.126 539.527C366.886 531.836 367.767 527.064 367.767 525.211C367.767 524.006 367.489 523.033 366.933 522.292C366.377 521.458 365.728 521.041 364.987 521.041C360.632 521.041 354.887 526.091 347.752 536.191C340.71 546.198 333.714 559.541 326.765 576.22H311.754Z" fill="white"/>
<path d="M391.256 546.893L388.893 544.114L414.328 518.401V517.567C414.328 512.007 415.394 507.606 417.525 504.363C419.749 501.027 422.76 499.359 426.559 499.359C428.505 499.359 430.127 499.915 431.424 501.027C432.721 502.139 433.37 503.575 433.37 505.335C433.37 507.467 432.489 509.459 430.729 511.312C429.061 513.165 425.169 515.806 419.054 519.234C424.891 523.126 429.2 527.389 431.98 532.021C434.76 536.562 436.15 541.704 436.15 547.449C436.15 556.159 432.721 563.34 425.864 568.993C419.1 574.552 410.575 577.332 400.29 577.332C394.36 577.332 389.727 576.452 386.391 574.691C382.963 572.838 381.249 570.29 381.249 567.047C381.249 564.916 381.851 563.155 383.055 561.765C384.26 560.375 385.835 559.68 387.781 559.68C390.376 559.68 393.48 561.812 397.093 566.074C400.707 570.336 404.043 572.467 407.101 572.467C411.085 572.467 413.911 570.336 415.579 566.074C417.34 561.719 418.22 554.167 418.22 543.419C418.22 540.546 417.942 537.488 417.386 534.245C416.923 530.91 416.181 527.157 415.162 522.987L391.256 546.893Z" fill="white"/>
<path d="M490.911 516.177C488.224 516.177 485.862 516.733 483.823 517.845C481.877 518.864 479.978 520.578 478.124 522.987C474.047 528.361 470.665 534.709 467.978 542.029C465.291 549.349 463.947 555.928 463.947 561.765C463.947 565.101 464.828 567.834 466.588 569.966C468.349 572.004 470.665 573.023 473.538 573.023C479.931 573.023 485.954 568.02 491.606 558.013C497.259 547.913 500.085 537.071 500.085 525.489C500.085 522.987 499.158 520.81 497.305 518.956C495.544 517.103 493.413 516.177 490.911 516.177ZM447.13 552.036C447.13 542.307 451.577 533.319 460.473 525.072C469.275 516.825 479.329 512.702 490.633 512.702C498.139 512.702 504.254 515.065 508.98 519.79C513.798 524.423 516.208 530.446 516.208 537.859C516.208 547.588 511.992 556.53 503.56 564.684C495.127 572.745 485.63 576.776 475.067 576.776C465.986 576.776 459.083 574.691 454.357 570.522C449.539 566.259 447.13 560.097 447.13 552.036Z" fill="white"/>
<path d="M536.083 546.893L533.72 544.114L559.155 518.401V517.567C559.155 512.007 560.221 507.606 562.352 504.363C564.576 501.027 567.587 499.359 571.386 499.359C573.332 499.359 574.954 499.915 576.251 501.027C577.548 502.139 578.197 503.575 578.197 505.335C578.197 507.467 577.317 509.459 575.556 511.312C573.888 513.165 569.997 515.806 563.881 519.234C569.719 523.126 574.027 527.389 576.807 532.021C579.587 536.562 580.977 541.704 580.977 547.449C580.977 556.159 577.548 563.34 570.692 568.993C563.927 574.552 555.403 577.332 545.117 577.332C539.187 577.332 534.554 576.452 531.218 574.691C527.79 572.838 526.076 570.29 526.076 567.047C526.076 564.916 526.678 563.155 527.883 561.765C529.087 560.375 530.663 559.68 532.608 559.68C535.203 559.68 538.307 561.812 541.921 566.074C545.534 570.336 548.87 572.467 551.928 572.467C555.912 572.467 558.738 570.336 560.406 566.074C562.167 561.719 563.047 554.167 563.047 543.419C563.047 540.546 562.769 537.488 562.213 534.245C561.75 530.91 561.009 527.157 559.989 522.987L536.083 546.893Z" fill="white"/>
<defs>
<linearGradient id="paint0_linear_1_29" x1="355.973" y1="-8.8195e-08" x2="353.566" y2="646.547" gradientUnits="userSpaceOnUse">
<stop stop-color="#FF473A"/>
<stop offset="1" stop-color="#C537F7"/>
</linearGradient>
<linearGradient id="paint1_linear_1_29" x1="374.593" y1="-39.2003" x2="390.452" y2="764.132" gradientUnits="userSpaceOnUse">
<stop stop-color="#C537F7"/>
<stop offset="1" stop-color="#FF473A"/>
</linearGradient>
<linearGradient id="paint2_linear_1_29" x1="374.593" y1="-39.2003" x2="390.452" y2="764.132" gradientUnits="userSpaceOnUse">
<stop stop-color="#C537F7"/>
<stop offset="1" stop-color="#FF473A"/>
</linearGradient>
<linearGradient id="paint3_linear_1_29" x1="374.593" y1="-39.2003" x2="390.452" y2="764.132" gradientUnits="userSpaceOnUse">
<stop stop-color="#C537F7"/>
<stop offset="1" stop-color="#FF473A"/>
</linearGradient>
<linearGradient id="paint4_linear_1_29" x1="374.593" y1="-39.2003" x2="390.452" y2="764.132" gradientUnits="userSpaceOnUse">
<stop stop-color="#C537F7"/>
<stop offset="1" stop-color="#FF473A"/>
</linearGradient>
</defs>
</svg>
